<svg width="19" height="24" viewBox="0 0 19 24" fill="none" xmlns="http://www.w3.org/2000/svg">
<path d="M9.49686 12.1941C12.2382 10.9423 13.4458 7.70516 12.194 4.96378C10.9422 2.22239 7.7051 1.01484 4.96372 2.26663C2.22233 3.51842 1.01478 6.75553 2.26657 9.49692C3.51836 12.2383 6.75548 13.4459 9.49686 12.1941Z" stroke="#4F2C1D" stroke-width="2" stroke-miterlimit="10"/>
<path d="M14.0953 19.7338L14.1022 19.747L14.1098 19.7598C14.1641 19.8509 14.2003 19.9516 14.2164 20.0551C14.2325 20.1586 14.2279 20.2614 14.2046 20.357C14.1813 20.4524 14.1399 20.5382 14.0849 20.61C14.03 20.6818 13.9622 20.7389 13.8861 20.7792C13.81 20.8194 13.7254 20.8429 13.6369 20.8476C13.5483 20.8523 13.4563 20.8381 13.3665 20.8037C13.2767 20.7693 13.1913 20.7153 13.1167 20.6437C13.042 20.5721 12.9806 20.4852 12.9371 20.3882L12.9184 20.3464L12.9037 20.3251L12.9008 20.3138L12.8892 20.2846L9.89887 12.7702C9.89747 12.7095 9.91098 12.6534 9.93479 12.6073C9.96425 12.5501 10.0082 12.5099 10.0576 12.4874C10.107 12.4648 10.1661 12.458 10.2286 12.4731C10.2791 12.4854 10.3303 12.5118 10.3753 12.5527L14.0953 19.7338Z" fill="#4F2C1D" stroke="#4F2C1D"/>
</svg>
