<svg width="12" height="17" viewBox="0 0 12 17" fill="none" xmlns="http://www.w3.org/2000/svg">
<path d="M5.83333 15.5164C5.73389 15.3973 5.62352 15.2636 5.50422 15.1166C4.96701 14.4546 4.25196 13.5288 3.53839 12.4711C2.82338 11.4114 2.11913 10.233 1.59591 9.06511C1.06829 7.88738 0.75 6.77533 0.75 5.83333C0.75 3.02255 3.02255 0.75 5.83333 0.75C8.64412 0.75 10.9167 3.02255 10.9167 5.83333C10.9167 6.77533 10.5984 7.88738 10.0708 9.06511C9.54754 10.233 8.84328 11.4114 8.12828 12.4711C7.41471 13.5288 6.69966 14.4546 6.16245 15.1166C6.04315 15.2636 5.93278 15.3973 5.83333 15.5164ZM3.41667 5.83333C3.41667 6.50378 3.56555 7.15538 4.03842 7.62825C4.51129 8.10112 5.16289 8.25 5.83333 8.25C6.50378 8.25 7.15538 8.10112 7.62825 7.62825C8.10112 7.15538 8.25 6.50378 8.25 5.83333C8.25 5.16289 8.10112 4.51129 7.62825 4.03842C7.15538 3.56555 6.50378 3.41667 5.83333 3.41667C5.16289 3.41667 4.51129 3.56555 4.03842 4.03842C3.56555 4.51129 3.41667 5.16289 3.41667 5.83333Z" stroke="white" stroke-width="1.5"/>
</svg>
